<mxfile host="app.diagrams.net" modified="2023-10-05T21:47:35.782Z" agent="Mozilla/5.0 (Macintosh; Intel Mac OS X 10.15; rv:109.0) Gecko/20100101 Firefox/118.0" version="22.0.3" etag="MYnRjoXLJZTCP957i72m" type="github">
  <diagram name="Page-1" id="eXRbEMAZMuJkv09kYC5j">
    <mxGraphModel>
      <root>
        <mxCell id="0" />
        <mxCell id="1" parent="0" />
      </root>
    </mxGraphModel>
  </diagram>
</mxfile>
